<svg viewBox="0 0 256 256" xmlns="http://www.w3.org/2000/svg"><path d="m225.86035 163.20862a7.94949 7.94949 0 0 0 .373-1.05676 104.00629 104.00629 0 0 0 -.01026-68.33094 7.96175 7.96175 0 0 0 -.35546-1.008 104.17627 104.17627 0 0 0 -97.82569-68.812l-.04194-.03669-.042.03663a104.17672 104.17672 0 0 0 -97.82177 68.80078 7.94362 7.94362 0 0 0 -.36475 1.03454 104.00363 104.00363 0 0 0 .01368 68.36792 7.94166 7.94166 0 0 0 .34082.9657 104.17706 104.17706 0 0 0 97.83102 68.83008l.043.0376.043-.0376a104.1768 104.1768 0 0 0 97.81735-68.79126zm-123.38235 4.79175h51.044a110.41425 110.41425 0 0 1 -25.522 42.4414 110.41425 110.41425 0 0 1 -25.522-42.4414zm-4.18848-16a126.93369 126.93369 0 0 1 0-48h59.4209a126.93369 126.93369 0 0 1 0 48zm-58.28952-24a87.78725 87.78725 0 0 1 3.32666-24h38.645a147.05417 147.05417 0 0 0 0 48h-38.645a87.78731 87.78731 0 0 1 -3.32666-24zm113.52246-40h-51.04492a110.409 110.409 0 0 1 25.52246-42.44137 110.409 110.409 0 0 1 25.52246 42.44137zm20.50586 16h38.645a88.23665 88.23665 0 0 1 0 48h-38.645a147.05417 147.05417 0 0 0 0-48zm32.34375-16h-35.96436a127.43894 127.43894 0 0 0 -24.13281-46.08631 88.31787 88.31787 0 0 1 60.09717 46.08631zm-96.647-46.08631a127.43894 127.43894 0 0 0 -24.13278 46.08631h-35.96436a88.31787 88.31787 0 0 1 60.09717-46.08631zm-60.09714 126.08631h35.96484a127.44553 127.44553 0 0 0 24.13282 46.08642 88.31787 88.31787 0 0 1 -60.09766-46.08642zm96.64648 46.08642a127.44553 127.44553 0 0 0 24.13282-46.08642h35.96484a88.31892 88.31892 0 0 1 -60.09766 46.08642z"/></svg>