<svg fill="#1C2033" width="52" height="52" viewBox="0 0 64 64" xmlns="http://www.w3.org/2000/svg"><path d="M18.5012 26.9001C18.5012 29.1001 19.6012 30.1001 19.6012 30.7001C19.6012 31.0001 19.5012 31.1001 19.2012 31.3001L17.9012 32.1001C17.8012 32.2001 17.5012 32.2001 17.3012 32.2001C17.3012 32.2001 16.5012 32.3001 15.3012 29.7001C13.9012 31.5001 11.6012 32.7001 9.30117 32.5001C7.80117 32.6001 3.50117 31.7001 3.70117 27.0001C3.60117 23.3001 6.90117 21.0001 10.6012 21.2001C11.3012 21.2001 12.7012 21.2001 15.1012 21.8001V20.3001C15.4012 17.8001 13.7012 15.8001 10.7012 16.1001C10.6012 16.1001 8.90117 16.1001 6.20117 17.1001C5.50117 17.5001 5.50117 17.5001 5.20117 17.5001C4.50117 17.5001 4.80117 15.5001 4.90117 15.1001C5.30117 14.5001 8.40117 13.4001 11.2012 13.4001C13.2012 13.3001 15.1012 13.8001 16.7012 15.1001C18.0012 16.5001 18.5012 18.3001 18.4012 20.2001L18.5012 26.9001ZM10.0012 30.0001C13.1012 30.0001 14.5012 28.0001 14.8012 27.0001C14.9012 26.0001 14.9012 25.5001 14.9012 24.3001C13.9012 24.2001 12.5012 23.9001 11.0012 23.9001C9.60117 23.8001 6.80117 24.5001 6.90117 27.0001C7.10117 28.8001 8.20117 30.1001 10.0012 30.0001ZM26.6012 32.2001C25.8012 32.3001 25.5012 31.8001 25.3012 31.2001L20.5012 15.3001C20.4012 15.0001 20.4012 14.7001 20.4012 14.5001C20.4012 14.2001 20.5012 14.1001 20.8012 14.1001C20.8012 14.1001 20.7012 14.1001 22.9012 14.1001C23.7012 14.0001 24.0012 14.7001 24.2012 15.1001L27.7012 28.7001L31.0012 15.1001C31.1012 14.8001 31.3012 14.0001 32.3012 14.1001H34.0012C34.1012 14.1001 35.1012 14.1001 35.3012 15.1001L38.5012 28.9001L42.0012 15.1001C42.0012 15.0001 42.3012 14.0001 43.3012 14.1001H45.3012C45.4012 14.1001 45.9012 14.0001 45.7012 14.9001C45.7012 15.0001 46.0012 13.8001 40.6012 31.3001C40.5012 31.9001 40.2012 32.4001 39.3012 32.3001H37.5012C36.4012 32.4001 36.2012 31.3001 36.2012 31.2001L32.7012 18.0001L29.5012 31.2001C29.5012 31.3001 29.4012 32.3001 28.2012 32.3001H26.7012V32.2001H26.6012ZM53.0012 32.8001C52.4012 32.8001 49.8012 32.8001 47.5012 31.7001C47.1012 31.6001 46.7012 31.0001 46.7012 30.6001V29.5001C46.7012 28.7001 47.3012 28.8001 47.5012 28.9001C48.5012 29.3001 49.0012 29.6001 50.3012 29.9001C53.8012 30.7001 55.4012 29.8001 55.8012 29.5001C57.1012 28.7001 57.2012 27.0001 56.2012 26.1001C55.2012 25.3001 54.8012 25.3001 51.1012 24.1001C50.8012 23.9001 47.0012 22.7001 47.0012 19.0001C46.9012 16.3001 49.4012 13.5001 53.7012 13.5001C55.0012 13.5001 58.2012 13.9001 59.2012 15.0001C59.3012 15.1001 59.3012 15.4001 59.3012 15.7001V16.7001C59.3012 17.1001 59.2012 17.4001 58.9012 17.4001C58.1012 17.3001 56.9012 16.3001 54.1012 16.3001C53.4012 16.3001 50.2012 16.4001 50.4012 18.7001C50.4012 20.5001 53.1012 21.2001 53.4012 21.4001C56.9012 22.5001 58.2012 22.7001 59.4012 24.4001C61.1012 26.5001 60.2012 29.0001 59.8012 29.7001C57.9012 33.2001 53.2012 32.8001 53.0012 32.8001ZM57.0012 43.0001C50.3012 47.9001 40.4012 50.6001 32.1012 50.6001C20.7012 50.8001 9.70117 46.6001 1.30117 39.0001C0.601168 38.4001 1.20117 37.6001 2.00117 38.2001C11.3012 43.4001 21.8012 46.2001 32.6012 46.2001C40.6012 46.2001 48.5012 44.5001 55.9012 41.4001C57.1012 40.9001 58.1012 42.1001 57.0012 43.0001ZM59.8012 39.8001C59.0012 38.7001 54.0012 39.4001 51.9012 39.5001C51.2012 39.6001 51.1012 39.1001 51.8012 38.7001C55.7012 36.0001 62.1012 36.7001 62.8012 37.6001C63.6012 38.4001 62.7012 44.9001 58.9012 48.0001C58.3012 48.4001 57.8012 48.1001 58.1012 47.6001C58.8012 45.4001 60.6012 40.9001 59.8012 39.8001Z"/></svg>