<?xml version="1.0" standalone="no"?>
<!DOCTYPE svg PUBLIC "-//W3C//DTD SVG 20010904//EN"
 "http://www.w3.org/TR/2001/REC-SVG-20010904/DTD/svg10.dtd">
<svg version="1.0" xmlns="http://www.w3.org/2000/svg"
 width="225.000000pt" height="225.000000pt" viewBox="0 0 225.000000 225.000000"
 preserveAspectRatio="xMidYMid meet">

<g transform="translate(0.000000,225.000000) scale(0.100000,-0.100000)"
fill="#000000" stroke="none">
<path d="M435 2071 c-27 -10 -63 -25 -80 -34 -53 -27 -127 -110 -159 -177
l-31 -65 0 -670 0 -670 31 -65 c40 -83 111 -154 194 -194 l65 -31 670 0 670 0
65 31 c83 40 154 111 194 194 l31 65 0 670 0 670 -31 65 c-40 83 -111 154
-194 194 l-65 31 -655 2 c-612 2 -658 1 -705 -16z m846 -388 c86 -40 138 -88
178 -163 59 -110 62 -259 9 -364 -26 -50 -26 -100 -3 -150 25 -51 109 -142
184 -196 63 -46 70 -57 49 -78 -32 -32 -148 -5 -236 55 -29 20 -55 33 -58 31
-3 -3 8 -50 24 -104 34 -113 31 -137 -16 -142 -46 -5 -76 21 -152 128 -83 115
-102 134 -128 126 -23 -8 -42 -51 -67 -154 -22 -92 -50 -136 -91 -140 -54 -5
-68 23 -74 151 -3 62 -9 118 -13 125 -14 21 -42 13 -73 -19 -41 -43 -164 -136
-195 -148 -19 -7 -32 -6 -44 2 -21 16 -11 44 44 116 22 30 39 56 37 58 -2 3
-21 -3 -41 -11 -107 -45 -99 -1 20 108 122 113 128 129 90 264 -23 78 -27 108
-23 176 8 144 80 263 192 320 79 40 107 45 221 43 88 -2 108 -6 166 -34z"/>
<path d="M992 1636 c-70 -18 -129 -60 -169 -120 -62 -91 -70 -193 -27 -341 26
-90 26 -92 10 -149 -12 -40 -31 -73 -60 -105 -42 -46 -42 -46 -26 -77 l16 -30
48 38 c111 88 186 24 186 -161 0 -41 2 -72 5 -69 3 3 17 48 31 99 30 109 46
140 84 163 64 37 121 5 205 -116 77 -110 79 -112 55 -44 -11 33 -20 76 -20 96
0 70 66 95 131 49 l34 -24 -37 46 c-84 102 -99 188 -52 299 21 50 27 81 28
135 0 137 -55 229 -168 285 -76 38 -187 48 -274 26z"/>
</g>
</svg>
