<svg fill="#1C2033" width="52" height="52" viewBox="0 0 64 64" xmlns="http://www.w3.org/2000/svg"><path d="M32 1C14.8 1 1 14.9 1 32C1 49.1 14.8 63 32 63C49.2 63 63 49 63 32C63 15 49 1 32 1ZM59.5 32C59.5 42.4 53.7 51.4 45.3 56L53.3 35.4C53.7 34.3 56.5 27.5 57.5 21.7C58.8 25 59.5 28.5 59.5 32ZM37.9 18.5H34.5H23.8C23.2 18.5 22.8 18.9 22.8 19.5C22.8 20.1 23.2 20.5 23.8 20.5H25.8L29.3 29.5L25.1 40.3L17.5 20.4H19.9C20.5 20.4 20.9 20 20.9 19.4C20.9 18.8 20.5 18.4 19.9 18.4H15.8L9.2 18.3C13.7 10.4 22.4 5.2 32 5.2C39 5.2 45.5 8 50.3 12.5C47.8 12.9 45.8 14.9 45.2 17.3C44.6 20.1 45.6 22.4 46.7 24.5C47.8 26.8 49 28.9 48.1 31.4L44.4 41L36.5 20.4H38C38.6 20.4 39 20 39 19.4C39 18.9 38.3 18.5 37.9 18.5ZM4.5 32C4.5 28.5 5.2 25.1 6.5 22L20 56.7C10.7 52.3 4.5 42.9 4.5 32ZM32.3 37.9L40.3 58.2C37.6 59 34.9 59.5 32 59.5C29.3 59.5 26.8 59.2 24.4 58.4L32.3 37.9Z"/></svg>