<svg fill="#1C2033" width="52" height="52" viewBox="0 0 64 64" xmlns="http://www.w3.org/2000/svg"><path d="M58.6 16.2C57.8 14.8 56.6 13.2 55.6 12.1C49.8 5.1 41.2 1 32 1C19.7 1 8.7 8 3.7 19.2C3.6 19.5 3.4 19.8 3.3 20C3.2 20.4 2.9 21.1 2.6 21.8C2.6 21.9 2.5 22.1 2.5 22.2C1.4 25.4 1 28.8 1 32C1 43 6.6 52.9 16.1 58.5L16.5 58.8C17.1 59.1 17.6 59.5 18.2 59.6C18.5 59.7 18.6 59.9 18.9 60H19C19.4 60.3 20.1 60.4 20.7 60.7L20.8 60.8C24.3 62.2 28.1 62.9 32.1 62.9C34.2 62.9 36.3 62.8 38.4 62.2C39.1 62.1 39.7 61.9 40.4 61.8C41.2 61.7 42.1 61.4 42.9 61C44.3 60.6 45.6 59.9 46.8 59.2C56.7 53.8 63 43.4 63 32C63 26.4 61.6 21 58.6 16.2ZM32 4.5C38.6 4.5 45.1 7 50.2 11.4C45.6 13.5 48.9 19.7 50.3 23.5C50.7 24.6 51 25.6 51 26.5L45.4 43.4L38.9 24C39.7 23.9 40.6 23.2 40.6 22.3C40.6 21.3 39.9 20.5 38.8 20.5H37.7H33.9H29H24.2H24C23.2 20.6 22.4 21.3 22.4 22.2C22.4 23.2 23.1 24 24.2 24H25L28.8 35L26.1 43.3L19.5 24C20.3 23.9 20.9 23.2 20.9 22.3C20.9 21.3 20.2 20.5 19.1 20.5H18.3H14.4H7.4C11.6 10.9 21.3 4.5 32 4.5ZM28.8 24.1H33.7H34.8L43.3 49L40.5 58.2H40.4L37.2 48.5L28.8 24.1ZM20.7 56.9L9.5 24.1H14.3H15.7L24.2 49L21.5 57.3C21.1 57.2 20.9 57.1 20.7 56.9ZM4.5 32C4.5 29.3 4.9 26.6 5.6 24.1L15.9 54.1C8.7 49.2 4.5 41 4.5 32ZM24.8 58.5L30.7 40.7L36.8 58.9C35.1 59.2 33.6 59.3 32 59.3C29.5 59.5 27.1 59.2 24.8 58.5ZM45 56.1C44.9 56.1 44.9 56.2 44.9 56.2L55.3 25C55.9 23.6 56.4 22 56.8 20.5C58.5 24 59.3 28 59.3 32.1C59.5 42.1 53.8 51.4 45 56.1Z"/></svg>