<svg fill="#1C2033" width="52" height="52" viewBox="0 0 64 64" xmlns="http://www.w3.org/2000/svg"><path d="M61.8 30.4998L56.2 20.5998C56.3 20.4998 56.3 20.1998 56.3 19.7998C56.3 18.9998 55.5 18.0998 54.6 18.0998L48.2 7.0998C48.3 6.9998 48.3 6.6998 48.3 6.4998C48.3 5.4998 47.5 4.7998 46.6 4.7998C46 4.7998 45.6 5.0998 45.2 5.4998H33.2C33 5.1998 32.6 4.9998 32.1 4.9998C31.5 4.9998 31.1 5.2998 30.8 5.6998H18.8C18.4 5.1998 17.9 4.9998 17.4 4.9998C16.4 4.9998 15.7 5.7998 15.7 6.6998C15.7 6.7998 15.8 7.0998 15.8 7.2998L9.4 18.2998C8.8 18.5998 8.3 19.0998 8.3 19.8998C8.3 19.9998 8.3 19.9998 8.3 19.9998L2.4 30.3998C1.6 30.4998 1 31.1998 1 32.0998C1 32.8998 1.6 33.6998 2.4 33.7998L8.6 44.4998C8.5 44.5998 8.5 44.7998 8.5 45.0998C8.5 45.8998 9.1 46.6998 9.9 46.7998L15.7 56.9998C15.6 57.0998 15.6 57.3998 15.6 57.5998C15.6 58.5998 16.4 59.2998 17.3 59.2998C17.9 59.2998 18.3 58.9998 18.6 58.6998H30.7C31.1 58.9998 31.5 59.2998 32.1 59.2998C32.5 59.2998 33.1 58.9998 33.4 58.6998H45.5C45.8 58.9998 46.3 59.2998 46.8 59.2998C47.8 59.2998 48.5 58.4998 48.5 57.5998C48.5 57.4998 48.5 57.2998 48.4 57.1998L54.2 46.9998C55 46.8998 55.6 46.1998 55.6 45.2998C55.6 45.1998 55.6 44.8998 55.5 44.6998L61.7 33.9998C62.5 33.8998 63.1 33.1998 63.1 32.2998C63.1 31.3998 62.6 30.6998 61.8 30.4998ZM16.8 54.1998L11.9 45.5998H16.8V54.1998ZM16.8 44.7998H11.9C11.9 44.6998 11.8 44.6998 11.8 44.3998L16.9 38.9998V44.7998H16.8ZM16.8 37.6998L11 43.7998C10.9 43.6998 10.7 43.4998 10.6 43.4998L4.4 32.4998C4.5 32.3998 4.5 32.1998 4.5 32.0998C4.5 31.9998 4.5 31.7998 4.5 31.6998L10.4 21.4998C10.7 21.4998 11 21.3998 11.2 21.1998L16.8 27.0998V37.6998ZM16.8 25.9998L11.7 20.5998C11.8 20.2998 12 19.9998 12 19.7998V19.6998L17 17.9998L16.8 25.9998ZM16.8 16.9998L11.9 18.6998L16.8 10.0998V16.9998ZM53.8 21.2998L53.9 21.3998L49.9 40.2998L42.7 32.6998L53.8 21.2998ZM32.5 43.4998L33.8 44.8998H31.1L32.5 43.4998ZM32.5 42.0998L23 32.3998L32 22.8998L41.5 32.7998L32.5 42.0998ZM33 42.7998L41.9 33.4998L49.5 41.4998L49 44.7998H35L33 42.7998ZM45.9 8.1998C46 8.3998 46 8.3998 46.3 8.3998L52.8 19.7998V19.8998C52.8 20.1998 52.9 20.5998 53.1 20.6998L42.1 32.0998L32.6 22.1998L45.9 8.1998ZM44.9 7.8998L32.1 21.5998L25.6 14.7998L44.5 7.9998H44.9V7.8998ZM30.9 7.8998C31.2 8.1998 31.6 8.2998 32 8.2998C32.4 8.2998 32.8 8.1998 33.1 7.8998H41.6L24.9 13.9998L19.1 7.8998H30.9ZM17.8 8.5998L17.9 8.4998C18 8.4998 18 8.3998 18.2 8.3998L24 14.4998L17.8 16.7998V8.5998ZM17.8 17.6998L24.7 15.1998L31.5 22.3998L22.3 31.8998L17.7 26.9998C17.8 26.9998 17.8 17.6998 17.8 17.6998ZM17.8 28.0998L21.9 32.2998L17.8 36.6998V28.0998ZM17.8 37.9998L22.6 32.8998L32.1 42.5998L30.1 44.5998H17.8V37.9998ZM18.5 56.3998C18.4 56.2998 18.1 56.0998 17.8 55.9998L17.7 55.8998V45.5998H29.1L18.5 56.3998ZM33.2 56.3998C32.9 56.0998 32.5 55.9998 32.1 55.9998C31.7 55.9998 31.3 56.0998 31 56.3998H20L30.4 45.6998H34.8L45.2 56.3998H33.2ZM46.9 55.0998L46.5 55.8998C46.4 55.8998 46.2 55.9998 46.1 55.9998L35.9 45.5998H48.9L46.9 55.0998ZM48.3 52.4998L49.7 45.5998H52.2L48.3 52.4998ZM52.2 44.7998H49.8L50.2 42.3998L52.2 44.3998C52.4 44.4998 52.2 44.5998 52.2 44.7998ZM59.7 32.5998L53.3 43.4998C53.2 43.5998 53 43.5998 52.9 43.5998L50.5 41.0998L54.5 22.5998L59.6 31.4998C59.6 31.5998 59.5 31.7998 59.5 31.8998C59.6 32.3998 59.7 32.4998 59.7 32.5998Z"/></svg>